# Autopistas de España - Modelo 3D Paramétrico
# Malla: Turismo_Paragolpes_Delantero
# Escala: 1 UU = 1 cm
# Bounding Box: Min=(-10.0, -90.0, 0.0), Max=(10.0, 90.0, 42.0)
# Dimensiones (X x Y x Z): 20.0 x 180.0 x 42.0 UU
mtllib Turismo_Paragolpes_Delantero.mtl

v 10.0000 -90.0000 0.0000
v 10.0000 90.0000 0.0000
v 10.0000 90.0000 42.0000
v 10.0000 -90.0000 0.0000
v 10.0000 90.0000 42.0000
v 10.0000 -90.0000 42.0000
v -10.0000 90.0000 0.0000
v -10.0000 -90.0000 0.0000
v -10.0000 -90.0000 42.0000
v -10.0000 90.0000 0.0000
v -10.0000 -90.0000 42.0000
v -10.0000 90.0000 42.0000
v 10.0000 90.0000 0.0000
v -10.0000 90.0000 0.0000
v -10.0000 90.0000 42.0000
v 10.0000 90.0000 0.0000
v -10.0000 90.0000 42.0000
v 10.0000 90.0000 42.0000
v -10.0000 -90.0000 0.0000
v 10.0000 -90.0000 0.0000
v 10.0000 -90.0000 42.0000
v -10.0000 -90.0000 0.0000
v 10.0000 -90.0000 42.0000
v -10.0000 -90.0000 42.0000
v -10.0000 -90.0000 42.0000
v 10.0000 -90.0000 42.0000
v 10.0000 90.0000 42.0000
v -10.0000 -90.0000 42.0000
v 10.0000 90.0000 42.0000
v -10.0000 90.0000 42.0000
v -10.0000 90.0000 0.0000
v 10.0000 90.0000 0.0000
v 10.0000 -90.0000 0.0000
v -10.0000 90.0000 0.0000
v 10.0000 -90.0000 0.0000
v -10.0000 -90.0000 0.0000
v 10.0000 -50.0000 4.0000
v 10.0000 50.0000 4.0000
v 10.0000 50.0000 26.0000
v 10.0000 -50.0000 4.0000
v 10.0000 50.0000 26.0000
v 10.0000 -50.0000 26.0000
v 9.0000 50.0000 4.0000
v 9.0000 -50.0000 4.0000
v 9.0000 -50.0000 26.0000
v 9.0000 50.0000 4.0000
v 9.0000 -50.0000 26.0000
v 9.0000 50.0000 26.0000
v 10.0000 50.0000 4.0000
v 9.0000 50.0000 4.0000
v 9.0000 50.0000 26.0000
v 10.0000 50.0000 4.0000
v 9.0000 50.0000 26.0000
v 10.0000 50.0000 26.0000
v 9.0000 -50.0000 4.0000
v 10.0000 -50.0000 4.0000
v 10.0000 -50.0000 26.0000
v 9.0000 -50.0000 4.0000
v 10.0000 -50.0000 26.0000
v 9.0000 -50.0000 26.0000
v 9.0000 -50.0000 26.0000
v 10.0000 -50.0000 26.0000
v 10.0000 50.0000 26.0000
v 9.0000 -50.0000 26.0000
v 10.0000 50.0000 26.0000
v 9.0000 50.0000 26.0000
v 9.0000 50.0000 4.0000
v 10.0000 50.0000 4.0000
v 10.0000 -50.0000 4.0000
v 9.0000 50.0000 4.0000
v 10.0000 -50.0000 4.0000
v 9.0000 -50.0000 4.0000

vt -0.9000 0.0000
vt 0.9000 0.0000
vt 0.9000 0.4200
vt -0.9000 0.0000
vt 0.9000 0.4200
vt -0.9000 0.4200
vt 0.9000 0.0000
vt -0.9000 0.0000
vt -0.9000 0.4200
vt 0.9000 0.0000
vt -0.9000 0.4200
vt 0.9000 0.4200
vt 0.1000 0.0000
vt -0.1000 0.0000
vt -0.1000 0.4200
vt 0.1000 0.0000
vt -0.1000 0.4200
vt 0.1000 0.4200
vt -0.1000 0.0000
vt 0.1000 0.0000
vt 0.1000 0.4200
vt -0.1000 0.0000
vt 0.1000 0.4200
vt -0.1000 0.4200
vt -0.1000 -0.9000
vt 0.1000 -0.9000
vt 0.1000 0.9000
vt -0.1000 -0.9000
vt 0.1000 0.9000
vt -0.1000 0.9000
vt -0.1000 0.9000
vt 0.1000 0.9000
vt 0.1000 -0.9000
vt -0.1000 0.9000
vt 0.1000 -0.9000
vt -0.1000 -0.9000
vt -0.5000 0.0400
vt 0.5000 0.0400
vt 0.5000 0.2600
vt -0.5000 0.0400
vt 0.5000 0.2600
vt -0.5000 0.2600
vt 0.5000 0.0400
vt -0.5000 0.0400
vt -0.5000 0.2600
vt 0.5000 0.0400
vt -0.5000 0.2600
vt 0.5000 0.2600
vt 0.1000 0.0400
vt 0.0900 0.0400
vt 0.0900 0.2600
vt 0.1000 0.0400
vt 0.0900 0.2600
vt 0.1000 0.2600
vt 0.0900 0.0400
vt 0.1000 0.0400
vt 0.1000 0.2600
vt 0.0900 0.0400
vt 0.1000 0.2600
vt 0.0900 0.2600
vt 0.0900 -0.5000
vt 0.1000 -0.5000
vt 0.1000 0.5000
vt 0.0900 -0.5000
vt 0.1000 0.5000
vt 0.0900 0.5000
vt 0.0900 0.5000
vt 0.1000 0.5000
vt 0.1000 -0.5000
vt 0.0900 0.5000
vt 0.1000 -0.5000
vt 0.0900 -0.5000

vn 1.0000 0.0000 0.0000
vn 1.0000 0.0000 0.0000
vn -1.0000 0.0000 0.0000
vn -1.0000 0.0000 0.0000
vn 0.0000 1.0000 0.0000
vn 0.0000 1.0000 0.0000
vn 0.0000 -1.0000 0.0000
vn 0.0000 -1.0000 0.0000
vn 0.0000 0.0000 1.0000
vn 0.0000 0.0000 1.0000
vn 0.0000 0.0000 -1.0000
vn 0.0000 0.0000 -1.0000
vn 1.0000 0.0000 0.0000
vn 1.0000 0.0000 0.0000
vn -1.0000 0.0000 0.0000
vn -1.0000 0.0000 0.0000
vn 0.0000 1.0000 0.0000
vn 0.0000 1.0000 0.0000
vn 0.0000 -1.0000 0.0000
vn 0.0000 -1.0000 0.0000
vn 0.0000 0.0000 1.0000
vn 0.0000 0.0000 1.0000
vn 0.0000 0.0000 -1.0000
vn 0.0000 0.0000 -1.0000

g Bumper_Debris
o Bumper_Debris
usemtl M_Plastic_Black
f 1/1/1 2/2/1 3/3/1
f 4/4/2 5/5/2 6/6/2
f 7/7/3 8/8/3 9/9/3
f 10/10/4 11/11/4 12/12/4
f 13/13/5 14/14/5 15/15/5
f 16/16/6 17/17/6 18/18/6
f 19/19/7 20/20/7 21/21/7
f 22/22/8 23/23/8 24/24/8
f 25/25/9 26/26/9 27/27/9
f 28/28/10 29/29/10 30/30/10
f 31/31/11 32/32/11 33/33/11
f 34/34/12 35/35/12 36/36/12
g Bumper_Grille
o Bumper_Grille
f 37/37/13 38/38/13 39/39/13
f 40/40/14 41/41/14 42/42/14
f 43/43/15 44/44/15 45/45/15
f 46/46/16 47/47/16 48/48/16
f 49/49/17 50/50/17 51/51/17
f 52/52/18 53/53/18 54/54/18
f 55/55/19 56/56/19 57/57/19
f 58/58/20 59/59/20 60/60/20
f 61/61/21 62/62/21 63/63/21
f 64/64/22 65/65/22 66/66/22
f 67/67/23 68/68/23 69/69/23
f 70/70/24 71/71/24 72/72/24
